<svg width="32" height="32" viewBox="0 0 32 32" fill="none" xmlns="http://www.w3.org/2000/svg">
<path fill-rule="evenodd" clip-rule="evenodd" d="M10.6673 9.33329V7.99996C10.6673 6.58547 11.2292 5.22892 12.2294 4.22872C13.2296 3.22853 14.5862 2.66663 16.0007 2.66663C17.4151 2.66663 18.7717 3.22853 19.7719 4.22872C20.7721 5.22892 21.334 6.58547 21.334 7.99996V9.33329H25.334C26.07 9.33329 26.6673 9.93196 26.6673 10.676V26.6773C26.6673 28.144 25.474 29.3333 24.0087 29.3333H7.99265C7.28799 29.3333 6.61215 29.0535 6.11363 28.5555C5.61511 28.0575 5.33469 27.382 5.33398 26.6773V10.6773C5.33398 9.93329 5.92732 9.33329 6.66732 9.33329H10.6673ZM12.2673 9.33329H19.734V7.99996C19.734 7.00982 19.3407 6.06023 18.6405 5.36009C17.9404 4.65996 16.9908 4.26663 16.0007 4.26663C15.0105 4.26663 14.0609 4.65996 13.3608 5.36009C12.6606 6.06023 12.2673 7.00982 12.2673 7.99996V9.33329ZM10.6673 10.9333H6.93398V26.6773C6.93398 27.2586 7.40865 27.7333 7.99265 27.7333H24.0087C24.289 27.7333 24.5578 27.6221 24.7563 27.4242C24.9548 27.2262 25.0666 26.9576 25.0673 26.6773V10.9333H21.334V14.6666H19.734V10.9333H12.2673V14.6666H10.6673V10.9333Z" fill="#252120"/>
</svg>
